<svg height="512pt" viewBox="0 0 512 512" width="512pt" xmlns="http://www.w3.org/2000/svg" xmlns:xlink="http://www.w3.org/1999/xlink"><linearGradient id="a" gradientUnits="userSpaceOnUse" x1="0" x2="512" y1="256" y2="256"><stop offset="0" stop-color="#00f1ff"/><stop offset=".231" stop-color="#00d8ff"/><stop offset=".5138" stop-color="#00c0ff"/><stop offset=".7773" stop-color="#00b2ff"/><stop offset="1" stop-color="#00adff"/></linearGradient><path d="m512 256c0 141.386719-114.613281 256-256 256s-256-114.613281-256-256 114.613281-256 256-256 256 114.613281 256 256zm0 0" fill="url(#a)"/><g fill="#fff"><path d="m392.132812 90.976562h-272.265624c-23.589844 0-42.78125 19.191407-42.78125 42.78125v230.59375c0 31.25 25.425781 56.671876 56.671874 56.671876h244.484376c31.246093 0 56.671874-25.421876 56.671874-56.671876 0-8.285156-6.714843-15-15-15-8.285156 0-15 6.714844-15 15 0 14.707032-11.964843 26.671876-26.671874 26.671876h-244.484376c-14.707031 0-26.671874-11.964844-26.671874-26.671876v-187.117187h297.828124v117.660156c0 8.285157 6.714844 15 15 15 8.285157 0 15-6.714843 15-15v-161.136719c0-23.589843-19.191406-42.78125-42.78125-42.78125zm-56.257812 30c7.046875 0 12.78125 5.734376 12.78125 12.78125 0 7.050782-5.734375 12.78125-12.78125 12.78125-7.050781 0-12.78125-5.730468-12.78125-12.78125 0-7.046874 5.730469-12.78125 12.78125-12.78125zm68.34375 12.78125c0 7.050782-5.734375 12.78125-12.78125 12.78125s-12.78125-5.730468-12.78125-12.78125c0-7.046874 5.734375-12.78125 12.78125-12.78125s12.78125 5.734376 12.78125 12.78125zm-297.132812 0c0-7.046874 5.734374-12.78125 12.78125-12.78125h175.175781c-1.265625 4.039063-1.949219 8.332032-1.949219 12.78125 0 4.710938.773438 9.238282 2.1875 13.476563h-188.195312zm0 0"/><path d="m174.046875 285.171875c0 45.1875 36.761719 81.953125 81.953125 81.953125s81.953125-36.765625 81.953125-81.953125c0-45.191406-36.761719-81.957031-81.953125-81.957031s-81.953125 36.765625-81.953125 81.957031zm69.6875 12.5h24.527344c-1.730469 25.066406-8.398438 39.902344-12.261719 43.8125-3.863281-3.910156-10.53125-18.746094-12.265625-43.8125zm0-25c1.734375-25.066406 8.402344-39.90625 12.265625-43.8125 3.863281 3.910156 10.53125 18.746094 12.265625 43.8125zm-19.15625-34.972656c-3.160156 10.582031-5.09375 22.691406-5.871094 34.972656h-18.261719c3.265626-14.53125 12.09375-26.980469 24.132813-34.972656zm-24.132813 59.972656h18.261719c.777344 12.28125 2.710938 24.390625 5.871094 34.972656-12.039063-7.996093-20.867187-20.441406-24.132813-34.972656zm86.976563 34.972656c3.160156-10.582031 5.09375-22.691406 5.871094-34.972656h18.261719c-3.265626 14.53125-12.09375 26.976563-24.132813 34.972656zm24.132813-59.972656h-18.261719c-.777344-12.28125-2.710938-24.390625-5.871094-34.972656 12.039063 7.992187 20.867187 20.441406 24.132813 34.972656zm0 0"/></g></svg>